<svg width="141" height="37" viewBox="0 0 141 37" fill="none" xmlns="http://www.w3.org/2000/svg">
<g id="Angie_Logo_RGB_Original_Black 1" clip-path="url(#clip0_226_208)">
<g id="_&#208;&#161;&#208;&#187;&#208;&#190;&#208;&#185;_2-2">
<g id="Group">
<path id="Vector" d="M140.26 0H0V36.0965H140.26V0Z" fill="black"/>
<path id="Vector_2" d="M59.853 5.51802V30.5789H52.898L52.8303 30.5011L40.7915 16.4056V30.5789H33.7688V5.51802H40.7288L40.7915 5.59075L52.8303 19.6862V5.51802H59.853ZM32.1887 30.5789H24.5491L22.8536 26.6211H11.5797L9.88427 30.5789H2.24463L12.9918 5.49795H21.4416L32.1887 30.5789ZM20.0596 20.1001L17.2179 13.4687L14.3738 20.1001H20.0596ZM105.984 5.51802H98.9616V30.5789H105.984V5.51802ZM134.704 12.0391V5.51802H111.54V30.5613H134.704V24.0403H118.562V21.2989H134.704V14.7779H118.562V12.0391H134.704ZM74.889 16.3229V21.9736H86.7623V22.6984C85.0066 23.6917 82.4233 24.1883 79.0123 24.1883C76.1857 24.1883 74.0989 23.7042 72.7521 22.7386C71.4027 21.7705 70.7281 20.2832 70.7281 18.2717V17.8904C70.7281 13.87 73.4895 11.8585 79.0123 11.8585C80.2588 11.8585 81.4301 11.9663 82.5236 12.182C83.6171 12.3977 84.5 12.6711 85.1571 13.0222C86.1528 13.5539 86.5541 14.2637 86.5541 14.2637H93.9756V14.1484C93.9756 12.2648 93.3586 10.637 92.1246 9.2626C90.8906 7.88817 89.1199 6.83728 86.8175 6.11244C84.515 5.3876 81.7837 5.02393 78.6285 5.02393C75.4734 5.02393 72.712 5.55815 70.3443 6.6266C67.9767 7.69504 66.1458 9.20241 64.8466 11.1512C63.5474 13.1 62.9003 15.3698 62.9003 17.9657V18.1563C62.9003 20.7772 63.5499 23.0546 64.8466 24.9883C66.1458 26.9221 68.0018 28.4194 70.4196 29.4753C72.8374 30.5312 75.6615 31.0604 78.8944 31.0604C80.6751 31.0604 82.2026 30.9074 83.4767 30.6014C84.7483 30.2955 85.9447 29.7863 87.0658 29.074L87.2188 30.5638H94.0132V16.3254H74.8865L74.889 16.3229Z" fill="white"/>
</g>
</g>
</g>
<defs>
<clipPath id="clip0_226_208">
<rect width="140.26" height="36.0965" fill="white"/>
</clipPath>
</defs>
</svg>
