<svg width="182" height="35" viewBox="0 0 182 35" fill="none" xmlns="http://www.w3.org/2000/svg">
<g id="Layer_1" clip-path="url(#clip0_2_774)">
<path id="Vector" d="M81.6248 17.5991C81.6248 24.3646 77.4363 27.5619 72.1974 27.5619H68.9945V23.5013H71.9446C75.1022 23.5013 77.2094 21.8195 77.2094 17.5991C77.2094 13.3787 75.2189 11.326 71.8473 11.326C68.4758 11.326 66.2843 13.2956 66.2843 17.516V34.4936H61.9207V7.80261H66.2843V10.0983H66.9067C68.3591 8.1735 70.5117 7.31023 72.7615 7.31023C77.5854 7.31023 81.6118 10.7569 81.6118 17.6055L81.6248 17.5991ZM52.9278 15.8342L50.0166 15.5465C47.7278 15.3418 46.5219 14.7279 46.5219 13.4171C46.5219 11.8568 48.0585 10.9551 50.263 10.9551C52.4674 10.9551 54.0041 12.023 54.1273 13.5386H58.3287C58.1602 9.68262 55.1258 7.30384 50.3019 7.30384C45.478 7.30384 42.1518 9.84888 42.1518 13.5769C42.1518 16.6911 44.1488 18.7054 48.6809 19.153L51.631 19.4408C53.4205 19.607 54.6265 19.9715 54.6265 21.6533C54.6265 23.1688 53.5048 24.2751 50.5547 24.2751C47.838 24.2751 46.4959 23.0601 46.0291 21.4295H41.484C41.9378 25.1575 45.1149 28.0479 50.5547 28.0479C55.6704 28.0479 58.9966 25.3813 58.9966 21.4423C58.9966 17.9572 56.6689 16.1923 52.9278 15.8214V15.8342ZM98.5344 21.4359C97.8471 22.9898 96.2132 24.16 93.892 24.16C90.6891 24.16 88.3225 22.1073 88.3225 17.6822C88.3225 13.2572 90.527 11.1214 93.9374 11.1214C96.9718 11.1214 98.7224 12.9247 98.8845 15.6296H91.0262V18.7437H103.17V16.6911C103.17 10.9935 99.3449 7.29744 93.8985 7.29744C88.8282 7.29744 83.9589 10.6994 83.9589 17.6759C83.9589 24.6523 88.8217 28.0543 93.8985 28.0543C98.5409 28.0543 101.848 25.2343 102.872 21.4359H98.5409H98.5344ZM29.7095 7.31023C24.9245 7.31023 21.352 9.77215 20.937 13.545H25.6377C25.9684 12.1509 27.2587 11.1278 29.7095 11.1278C32.8671 11.1278 33.911 12.7712 33.911 14.7791V21.5446C32.1215 23.5525 30.0467 24.4989 27.9654 24.4989C25.8841 24.4989 24.3086 23.4757 24.3086 21.6277C24.3086 19.7797 25.4756 18.7565 27.719 18.7565H31.2137V15.6424H27.5958C22.6033 15.6424 19.8218 18.1043 19.8218 21.8771C19.8218 25.4069 22.5255 28.0671 26.9734 28.0671C29.4696 28.0671 31.6741 27.0823 33.295 25.8929H33.9175V27.5747H38.281V14.3635C38.281 9.48439 34.916 7.31023 29.716 7.31023H29.7095ZM0.0853271 27.5683H4.44888V0.5H0.0853271V27.5683ZM18.4213 7.80261H13.0982L6.73764 16.0452V18.6286L13.2668 27.5683H18.6742L11.0234 17.3178L18.4278 7.80261H18.4213ZM176.255 7.80261L172.676 15.636C171.801 17.5224 170.971 19.3704 170.724 20.5982H170.102C169.855 19.3704 168.98 17.5607 168.105 15.6743L164.526 7.80261H159.702L168.098 25.5604L163.942 34.5H168.598L181.072 7.80261H176.248H176.255ZM158.742 7.80261H153.419L147.059 16.0452V18.6286L153.588 27.5683H158.995L151.344 17.3178L158.749 7.80261H158.742ZM131.407 15.8406L128.496 15.5529C126.207 15.3482 125.001 14.7343 125.001 13.4235C125.001 11.8632 126.538 10.9615 128.742 10.9615C130.947 10.9615 132.483 12.0294 132.606 13.545H136.808C136.639 9.68902 133.605 7.31023 128.781 7.31023C123.957 7.31023 120.631 9.85528 120.631 13.5833C120.631 16.6975 122.628 18.7118 127.16 19.1594L130.11 19.4472C131.9 19.6134 133.106 19.9779 133.106 21.6597C133.106 23.1752 131.984 24.2815 129.034 24.2815C126.317 24.2815 124.975 23.0665 124.508 21.4359H119.963C120.417 25.1639 123.594 28.0543 129.034 28.0543C134.15 28.0543 137.476 25.3877 137.476 21.4487C137.476 17.9636 135.148 16.1987 131.407 15.8278V15.8406ZM140.406 27.5683H144.77V0.5H140.406V27.5683ZM111.612 10.0983H110.99V7.80261H106.626V27.5683H110.99V17.2346C110.99 13.7048 112.643 11.6585 115.898 11.6585H118.66V7.31023H117.058C114.037 7.31023 112.753 8.43568 111.612 10.0983Z" fill="#069782"/>
</g>
<defs>
<clipPath id="clip0_2_774">
<rect width="181" height="34" fill="white" transform="translate(0.0853271 0.5)"/>
</clipPath>
</defs>
</svg>
